<svg width="28" height="30" viewBox="0 0 28 30" fill="none" xmlns="http://www.w3.org/2000/svg">
<path d="M8.36036 1.52804C3.76901 3.71108 0 9.91912 0 15.0356C0 22.8809 7.53803 30.3852 15.4187 30.3852C20.6953 30.3852 26.8628 26.5648 29.1242 21.8576C29.7409 20.4932 30.1521 19.1971 29.9465 19.0606C29.8095 18.9242 28.1648 19.4017 26.3831 20.2204C16.0354 24.7911 5.61926 14.4216 10.2106 4.1204C10.9644 2.34668 11.6497 0.777617 11.6497 0.641176C11.6497 0.0954151 10.6218 0.436516 8.36036 1.52804ZM8.2233 5.41659C4.7284 14.6945 15.7613 25.678 25.0811 22.1987C27.6166 21.1754 27.7536 21.653 25.5608 24.2453C21.9288 28.5432 15.6243 30.1123 10.4162 27.9292C0.685275 23.9042 -1.57613 11.42 6.16748 4.93904C8.77152 2.756 9.25121 2.89244 8.2233 5.41659Z" fill="#FBF9FF"/>
</svg>
